<?xml version="1.0" encoding="UTF-8"?>
<svg id="Capa_1" data-name="Capa 1" xmlns="http://www.w3.org/2000/svg" viewBox="0 0 3705.73 3004.54">
  <defs>
    <style>
      .cls-1 {
        fill: #fff;
      }
    </style>
  </defs>
  <path class="cls-1" d="M1644.89,2394.65l344.15-1.19,32.05-109.16c35.92-151.48,40.16-321.35-38.77-457.45-38.99-67.23-98.13-117.69-168.36-144.73-40.31-15.53-82.71-25.13-128.99-25.27l-267.81-.81-12.02-.44-469.17.04c-.7-6.66,1.69-11.48,5.03-20.88l326.94-923.01c59.9-169.11,76.62-382.82-14.25-539.58C1192.45,66.51,1078.15,1.88,956.86,1.35L669.33.08l-80.26-.08L0,1657.16l586.15,1.73-261.46,737.05,293.06.89,1027.13-2.17ZM2077.13,605.66l-345.32.83c-49.87,143.64-75.3,295.21-41.68,444.58,36.44,167.35,166.13,291.73,339.33,293.48l331.85,3.34,412.56-.45-329.33,943.34c-65.03,185.4-80.06,426.84,44.16,585.71l38.94,40.97c63.53,57.3,143.48,86.79,229.81,86.85l323.7.25,41.94-.47,582.64-1654.71-580.18-2.87,258.76-737.45-1307.17-3.39Z"/>
</svg>