<?xml version="1.0" encoding="UTF-8"?>
<svg id="Capa_21" data-name="Capa 21" xmlns="http://www.w3.org/2000/svg" viewBox="0 0 62.89 57.33">
  <defs>
    <style>
      .cls-1 {
        fill: #fff;
      }
    </style>
  </defs>
  <path class="cls-1" d="M19.23,27.73c1.33,7.25,8.37,12.11,15.62,10.46l5.81,5.77c-1.27.52-2.55.88-3.88,1.16-7.08,1.39-14.65-.19-20.03-5.14-2.88-2.65-4.89-6.08-5.8-9.89-.72-3.02-.76-6.2-.12-9.24.81-3.82,2.74-7.3,5.57-9.98,3.15-3,7.15-4.85,11.45-5.54,2.87-.46,5.79-.43,8.64.1,4.04.75,7.79,2.54,10.79,5.35,5.05,4.73,7.02,11.57,5.78,18.32-.41,2.15-1.15,4.19-2.22,6.09h-.08s-6.45-6.45-6.45-6.45c.91-3.65.4-7.58-1.61-10.76-2.25-3.62-6.18-5.78-10.39-5.88-6.18-.14-11.6,4.06-12.96,10.1-.4,1.78-.45,3.66-.11,5.52Z"/>
  <polygon class="cls-1" points="52.97 46.33 46.44 46.34 38.78 38.69 28.25 28.2 28.25 22.18 34.51 22.18 52.97 40.42 52.97 46.33"/>
</svg>