<svg display="block" role="presentation" viewBox="0 0 129 104" xmlns="http://www.w3.org/2000/svg"><g d="M 119.78 42.654 L 118.644 45.122 L 118.031 46.659 L 116.807 50.197 L 111.684 65.009 L 110.309 68.994 L 108.713 73.675 L 105.269 83.662 L 104.273 86.493 L 102.737 91.051 L 101.505 94.709 L 97.57 103.751 C 97.343 104.272 96.211 104.428 95.994 103.833 L 90.37 88.38 L 86.264 76.753 L 82.263 65.344 L 79.323 57.15 C 79.272 57.09 79.082 56.837 79.031 56.895 L 78.78 57.177 L 77.306 61.372 L 69.438 83.814 L 68.959 85.154 L 66.252 92.698 L 64.2 97.656 L 61.548 103.561 C 61.358 103.987 60.845 104.238 60.415 104.216 C 59.986 104.194 59.689 103.824 59.501 103.331 L 52.956 86.094 L 46.94 70.151 L 45.559 66.485 L 44.721 64.259 C 44.65 64.071 44.535 63.793 44.43 63.686 C 44.304 63.559 43.901 63.675 43.695 63.746 C 41.283 64.592 38.843 64.913 36.318 65.23 C 33.59 65.574 30.979 65.449 28.262 65.026 L 25.979 64.67 C 20.262 63.517 15.005 61.049 10.582 57.169 C 6.643 53.714 3.564 49.349 1.894 44.397 L 1.157 42.205 C -0.069 38.567 -0.151 32.941 0.142 29.014 C 0.444 24.977 1.577 21.2 3.376 17.641 C 8.672 7.163 19.033 1.301 30.542 0.248 L 32.408 0.077 C 33.598 -0.031 34.719 -0.022 35.91 0.083 L 37.617 0.235 C 42.04 0.63 46.238 1.788 50.139 3.9 C 54.142 6.067 57.514 8.932 60.202 12.61 C 60.987 13.685 61.714 14.775 62.331 15.954 L 63.131 17.481 C 65.127 21.294 66.201 25.538 66.443 29.853 L 66.531 31.437 L 66.658 33.998 L 93.275 34.004 C 93.483 34.004 93.779 34.362 93.796 34.539 C 93.813 34.715 93.582 35.151 93.348 35.188 L 90.63 35.622 C 87.826 36.069 83.885 37.929 84.88 40.904 L 90.577 57.93 L 95.541 71.753 L 101.286 87.594 C 101.963 86.807 102.07 86.071 102.345 85.286 L 105.26 76.919 L 108.277 67.892 L 109.41 64.451 L 110.661 60.658 L 111.253 58.83 L 113.746 51.06 L 115.37 45.198 L 115.657 43.313 L 115.801 41.643 C 115.956 39.836 115.64 38.186 114.016 37.214 C 112.88 36.536 111.567 35.829 110.23 35.588 L 108.228 35.227 C 108.004 35.186 107.667 35.055 107.567 34.903 C 107.451 34.725 107.533 34.164 107.684 34.035 L 110.081 33.953 L 111.645 33.973 L 125.949 33.978 L 127.195 33.961 L 128.595 33.999 C 128.824 34.006 129.167 34.314 129.198 34.54 C 129.343 35.577 126.411 34.974 123.426 37.605 C 122.668 38.273 121.866 39.116 121.331 40.02 L 119.775 42.654 Z M 55.307 34.264 L 55.312 30.501 C 55.312 30.32 54.853 30.019 54.646 30.019 L 27.14 30.01 C 27.48 29.218 28.278 29.461 28.881 29.396 L 30.418 29.234 L 34.595 28.682 L 40.192 27.892 L 46.596 26.962 L 49.5 26.539 L 54.652 25.811 C 54.277 21.668 52.182 15.57 49.959 12.173 L 49.107 10.872 L 48.203 9.638 C 46.745 7.649 44.87 6.031 42.85 4.635 C 41.297 3.563 39.165 2.657 37.318 2.322 C 36.752 2.22 36.047 1.963 35.47 1.953 C 33.84 1.926 32.347 1.902 30.728 1.981 C 30.006 2.017 29.187 2.265 28.437 2.429 C 25.818 3.007 23.424 4.274 21.405 6.059 C 20.296 7.04 19.23 8.053 18.303 9.188 C 13.305 15.295 11.642 23.614 11.249 31.313 C 11.184 32.576 11.188 33.724 11.249 34.988 C 11.666 43.773 14.088 53.1 20.868 59.098 C 25.267 62.99 30.886 64.437 36.682 63.466 C 38.861 63.1 41.75 62.054 43.312 60.587 L 41.941 56.958 L 38.976 49.112 L 38.35 47.453 L 35.786 41.289 C 34.672 38.61 32.735 36.268 29.7 35.62 L 27.683 35.189 C 27.475 35.144 27.179 34.732 27.202 34.528 C 27.227 34.311 27.543 33.995 27.85 33.995 L 54.497 33.999 L 55.309 34.26 Z M 54.235 42.379 L 54.646 40.166 L 55.08 36.787 L 55.166 34.909 L 51.889 35.65 C 51.069 35.834 50.215 36.274 49.463 36.705 C 48.166 37.448 47.563 38.882 47.828 40.445 C 48.302 43.238 49.445 45.841 50.331 48.544 L 50.873 50.195 C 50.929 50.363 51.106 50.655 51.258 50.663 C 51.802 50.691 53.844 44.478 54.233 42.377 Z M 76.361 57.271 L 76.654 56.275 L 77.627 53.384 C 77.753 53.009 77.61 52.789 77.471 52.425 L 75.096 46.258 L 74.331 44.396 L 73.167 41.768 L 71.794 39.167 C 71.547 38.702 71.035 38.076 70.607 37.791 L 68.849 36.618 C 68.126 36.136 67.388 35.91 66.523 35.808 L 66.156 37.836 C 64.899 46.145 60.555 53.122 54.052 58.426 C 54.134 59.019 54.319 59.54 54.531 60.1 L 58.765 71.289 L 64.533 86.249 L 65.282 88.154 C 65.883 87.74 65.802 87.438 65.985 86.922 L 72.462 68.704 L 76.363 57.273 Z M 101.379 17.003 L 101.974 16.463 C 102.207 16.253 102.903 17.218 103.412 17.051 C 104.001 16.857 103.989 15.87 104.077 15.833 L 104.668 15.58 L 105.891 15.108 C 107.284 14.569 107.243 15.545 108.197 15.681 C 108.776 15.763 108.758 14.923 109.157 14.669 C 109.63 14.369 110.018 15.588 111.141 15.411 L 111.739 16.183 C 112.144 16.705 112.575 16.635 113.178 16.31 C 113.771 16.708 114.417 17.516 114.478 18.269 C 114.538 19.022 114.72 19.369 115.256 19.878 C 115.752 20.351 115.741 21.453 115.377 22.003 C 115.144 22.353 115.051 22.579 114.909 22.999 C 114.752 23.461 113.949 23.468 113.531 23.313 L 113.024 23.908 C 112.742 24.238 112.099 23.36 111.722 23.273 C 111.577 23.241 111.267 23.566 111.245 23.715 L 110.954 25.647 L 113.06 26.184 L 114.916 26.617 L 117.015 27.114 L 118.732 27.535 L 120.933 28.078 L 122.515 28.479 L 126.75 29.407 C 127.051 29.472 127.363 29.718 127.319 30.019 L 72.446 30.019 L 71.91 29.618 C 72.625 29.029 73.257 28.628 74.075 28.34 C 75.986 27.664 77.9 27.202 79.904 26.846 L 84.019 26.115 L 86.14 25.727 L 88.891 25.233 C 89.551 25.114 90.269 25.196 90.917 24.785 C 90.001 24.482 89.094 24.697 88.259 25.121 C 87.206 25.089 86.229 25.187 85.203 25.396 L 77.265 26.476 L 75.741 26.627 L 73.886 26.88 L 70.526 27.349 L 69.018 27.563 C 68.612 27.621 68.326 27.247 68.245 26.874 L 67.692 24.296 C 67.811 24.176 68.122 23.955 68.087 23.826 L 67.926 23.254 L 67.631 21.417 L 67.135 18.891 L 65.694 18.862 C 64.546 16.485 63.202 14.257 61.534 12.215 C 61.19 11.794 61.207 11.629 61.147 11.132 C 60.98 9.739 61.218 8.638 62.123 7.52 L 63.487 5.838 L 64.671 6.678 C 66.836 6.437 66.863 4.578 68.014 3.941 C 68.378 4.147 68.716 4.38 68.945 4.398 C 69.175 4.417 69.643 4.101 69.747 3.896 L 70.243 2.931 C 70.54 2.806 71.14 2.854 71.475 3.08 C 72.246 3.602 71.833 4.767 72.869 4.832 C 74.018 4.904 74.759 4.25 75.485 3.461 C 75.851 3.064 76.77 3.404 77.159 3.721 C 77.703 4.164 78.221 4.23 78.906 3.963 L 79.475 4.659 C 80.095 5.418 80.445 4.567 81.111 4.998 C 80.75 5.818 81.052 6.265 81.571 6.837 C 81.807 7.096 82.132 7.572 82.419 7.626 C 83.399 7.809 84.33 5.833 85.556 6.518 L 86.067 7.48 C 86.199 7.728 86.968 7.782 87.265 7.722 L 89.401 7.291 C 90.149 7.141 90.041 8.171 90.331 8.394 C 90.481 8.51 90.946 8.531 91.154 8.509 L 92.496 8.371 L 92.566 10.161 L 93.402 10.274 L 93.957 11.981 L 94.836 14.063 C 94.98 14.407 94.664 14.878 94.359 15.083 C 94.729 15.463 95.103 15.89 94.988 16.403 L 93.928 16.749 C 93.931 17.26 93.946 17.929 93.777 18.238 L 93.449 18.834 C 93.367 18.984 93.816 19.209 93.963 19.307 L 94.391 19.59 C 94.693 19.792 93.488 20.89 92.208 20.136 C 91.196 19.541 90.856 20.831 90.061 20.693 C 89.444 20.586 89.119 19.562 88.942 19.663 L 88.502 19.909 C 88.315 20.015 87.85 20.139 87.62 20.131 C 87.377 20.123 87.039 19.737 86.954 19.48 L 86.318 17.567 C 85.61 17.829 84.806 18.145 84.369 18.63 C 84.206 18.809 84.239 19.519 84.015 19.599 L 83.014 19.96 C 82.477 20.154 82.17 21.043 82.002 21.592 L 81.548 23.076 C 81.894 23.149 82.401 23.073 82.813 23.076 L 86.813 23.101 L 91.13 23.231 L 92.637 23.234 C 92.908 23.234 93.24 23.27 93.491 23.368 C 92.783 24.389 91.901 23.949 91.041 24.519 C 91.743 25.047 93.426 24.254 94.431 23.639 C 95.31 23.101 97.44 24.254 97.415 22.887 C 97.405 22.393 97.083 21.913 96.722 21.592 L 96.899 20.458 L 97.635 18.747 L 98.21 17.641 C 98.543 17.557 99.151 17.393 99.509 17.133 L 101.385 17.009 Z M 76.037 22.872 C 75.777 21.282 75.679 19.861 75.867 18.296 C 74.281 17.137 73.784 19.384 72.231 19.717 C 72.071 19.132 72.048 18.577 72.197 18.075 C 72.589 16.755 70.721 16.699 72.298 15.923 C 72.369 15.735 72.164 15.201 71.974 15.019 C 71.802 14.857 71.183 14.888 70.923 14.995 L 70.673 16.886 L 70.584 18.219 L 70.522 19.945 L 70.577 23.591 C 70.89 23.715 71.327 23.741 71.668 23.707 L 75.005 23.371 C 75.306 23.34 76.093 23.227 76.034 22.872 Z M 69.161 20.841 L 69.255 18.428 C 69.285 17.694 69.299 17.069 68.953 16.364 C 68.865 16.183 68.288 16.087 68.291 16.268 L 68.463 18.561 L 68.591 20.261 C 68.609 20.52 68.882 20.879 69.161 20.841 Z M 77.728 22.793 C 77.714 22.921 78.009 23.248 78.123 23.208 C 78.782 22.972 78.841 21.504 78.41 20.484 C 78.022 20.755 77.909 21.078 77.866 21.484 L 77.726 22.793 Z M 106.881 24.344 C 106.862 24.579 107.062 25.053 107.262 25.075 L 109.486 25.317 L 109.455 21.998 C 109.453 21.8 109.438 21.516 109.376 21.384 C 109.326 21.279 109.027 21.183 108.874 21.15 L 108.784 22.68 C 108.77 22.926 108.77 23.292 108.598 23.399 C 108.181 23.659 107.057 22.156 107.003 22.831 L 106.881 24.345 Z M 103.456 24.166 L 102.543 23.382 L 102.115 22.788 C 102.01 22.642 101.458 22.703 101.379 22.811 C 101.167 23.285 100.92 23.577 100.472 23.947 L 101.531 24.124 C 102.245 24.243 102.627 24.238 103.456 24.164 Z" fill="transparent" height="104.21739791292481px" id="xi4aPrlxF" width="129.202788217407px"><path d="M 119.78 42.654 L 118.644 45.122 L 118.031 46.659 L 116.807 50.197 L 111.684 65.009 L 110.309 68.994 L 108.713 73.675 L 105.269 83.662 L 104.273 86.493 L 102.737 91.051 L 101.505 94.709 L 97.57 103.751 C 97.343 104.272 96.211 104.428 95.994 103.833 L 90.37 88.38 L 86.264 76.753 L 82.263 65.344 L 79.323 57.15 C 79.272 57.09 79.082 56.837 79.031 56.895 L 78.78 57.177 L 77.306 61.372 L 69.438 83.814 L 68.959 85.154 L 66.252 92.698 L 64.2 97.656 L 61.548 103.561 C 61.358 103.987 60.845 104.238 60.415 104.216 C 59.986 104.194 59.689 103.824 59.501 103.331 L 52.956 86.094 L 46.94 70.151 L 45.559 66.485 L 44.721 64.259 C 44.65 64.071 44.535 63.793 44.43 63.686 C 44.304 63.559 43.901 63.675 43.695 63.746 C 41.283 64.592 38.843 64.913 36.318 65.23 C 33.59 65.574 30.979 65.449 28.262 65.026 L 25.979 64.67 C 20.262 63.517 15.005 61.049 10.582 57.169 C 6.643 53.714 3.564 49.349 1.894 44.397 L 1.157 42.205 C -0.069 38.567 -0.151 32.941 0.142 29.014 C 0.444 24.977 1.577 21.2 3.376 17.641 C 8.672 7.163 19.033 1.301 30.542 0.248 L 32.408 0.077 C 33.598 -0.031 34.719 -0.022 35.91 0.083 L 37.617 0.235 C 42.04 0.63 46.238 1.788 50.139 3.9 C 54.142 6.067 57.514 8.932 60.202 12.61 C 60.987 13.685 61.714 14.775 62.331 15.954 L 63.131 17.481 C 65.127 21.294 66.201 25.538 66.443 29.853 L 66.531 31.437 L 66.658 33.998 L 93.275 34.004 C 93.483 34.004 93.779 34.362 93.796 34.539 C 93.813 34.715 93.582 35.151 93.348 35.188 L 90.63 35.622 C 87.826 36.069 83.885 37.929 84.88 40.904 L 90.577 57.93 L 95.541 71.753 L 101.286 87.594 C 101.963 86.807 102.07 86.071 102.345 85.286 L 105.26 76.919 L 108.277 67.892 L 109.41 64.451 L 110.661 60.658 L 111.253 58.83 L 113.746 51.06 L 115.37 45.198 L 115.657 43.313 L 115.801 41.643 C 115.956 39.836 115.64 38.186 114.016 37.214 C 112.88 36.536 111.567 35.829 110.23 35.588 L 108.228 35.227 C 108.004 35.186 107.667 35.055 107.567 34.903 C 107.451 34.725 107.533 34.164 107.684 34.035 L 110.081 33.953 L 111.645 33.973 L 125.949 33.978 L 127.195 33.961 L 128.595 33.999 C 128.824 34.006 129.167 34.314 129.198 34.54 C 129.343 35.577 126.411 34.974 123.426 37.605 C 122.668 38.273 121.866 39.116 121.331 40.02 L 119.775 42.654 Z M 55.307 34.264 L 55.312 30.501 C 55.312 30.32 54.853 30.019 54.646 30.019 L 27.14 30.01 C 27.48 29.218 28.278 29.461 28.881 29.396 L 30.418 29.234 L 34.595 28.682 L 40.192 27.892 L 46.596 26.962 L 49.5 26.539 L 54.652 25.811 C 54.277 21.668 52.182 15.57 49.959 12.173 L 49.107 10.872 L 48.203 9.638 C 46.745 7.649 44.87 6.031 42.85 4.635 C 41.297 3.563 39.165 2.657 37.318 2.322 C 36.752 2.22 36.047 1.963 35.47 1.953 C 33.84 1.926 32.347 1.902 30.728 1.981 C 30.006 2.017 29.187 2.265 28.437 2.429 C 25.818 3.007 23.424 4.274 21.405 6.059 C 20.296 7.04 19.23 8.053 18.303 9.188 C 13.305 15.295 11.642 23.614 11.249 31.313 C 11.184 32.576 11.188 33.724 11.249 34.988 C 11.666 43.773 14.088 53.1 20.868 59.098 C 25.267 62.99 30.886 64.437 36.682 63.466 C 38.861 63.1 41.75 62.054 43.312 60.587 L 41.941 56.958 L 38.976 49.112 L 38.35 47.453 L 35.786 41.289 C 34.672 38.61 32.735 36.268 29.7 35.62 L 27.683 35.189 C 27.475 35.144 27.179 34.732 27.202 34.528 C 27.227 34.311 27.543 33.995 27.85 33.995 L 54.497 33.999 L 55.309 34.26 Z M 54.235 42.379 L 54.646 40.166 L 55.08 36.787 L 55.166 34.909 L 51.889 35.65 C 51.069 35.834 50.215 36.274 49.463 36.705 C 48.166 37.448 47.563 38.882 47.828 40.445 C 48.302 43.238 49.445 45.841 50.331 48.544 L 50.873 50.195 C 50.929 50.363 51.106 50.655 51.258 50.663 C 51.802 50.691 53.844 44.478 54.233 42.377 Z M 76.361 57.271 L 76.654 56.275 L 77.627 53.384 C 77.753 53.009 77.61 52.789 77.471 52.425 L 75.096 46.258 L 74.331 44.396 L 73.167 41.768 L 71.794 39.167 C 71.547 38.702 71.035 38.076 70.607 37.791 L 68.849 36.618 C 68.126 36.136 67.388 35.91 66.523 35.808 L 66.156 37.836 C 64.899 46.145 60.555 53.122 54.052 58.426 C 54.134 59.019 54.319 59.54 54.531 60.1 L 58.765 71.289 L 64.533 86.249 L 65.282 88.154 C 65.883 87.74 65.802 87.438 65.985 86.922 L 72.462 68.704 L 76.363 57.273 Z" fill="rgb(255, 255, 255)" height="104.21739791292481px" id="E54IPUFt9" transform="translate(0 0)" width="129.20278821740698px"/><path d="M 40.282 14.139 L 40.877 13.6 C 41.109 13.389 41.805 14.355 42.315 14.187 C 42.904 13.994 42.892 13.007 42.98 12.97 L 43.57 12.717 L 44.793 12.244 C 46.186 11.705 46.146 12.681 47.099 12.818 C 47.679 12.9 47.66 12.06 48.06 11.806 C 48.533 11.505 48.92 12.725 50.044 12.548 L 50.642 13.32 C 51.047 13.842 51.477 13.772 52.08 13.447 C 52.674 13.845 53.32 14.652 53.381 15.405 C 53.441 16.158 53.622 16.505 54.159 17.015 C 54.654 17.488 54.644 18.589 54.279 19.139 C 54.047 19.489 53.954 19.716 53.811 20.136 C 53.655 20.597 52.852 20.605 52.434 20.45 L 51.927 21.045 C 51.645 21.375 51.002 20.497 50.625 20.41 C 50.479 20.377 50.169 20.703 50.148 20.851 L 49.856 22.783 L 51.962 23.321 L 53.819 23.753 L 55.918 24.251 L 57.635 24.672 L 59.835 25.214 L 61.418 25.616 L 65.653 26.544 C 65.954 26.609 66.265 26.855 66.222 27.156 L 11.349 27.156 L 10.813 26.754 C 11.527 26.166 12.16 25.764 12.978 25.476 C 14.889 24.801 16.803 24.339 18.807 23.983 L 22.921 23.251 L 25.043 22.864 L 27.794 22.37 C 28.454 22.25 29.171 22.333 29.819 21.922 C 28.903 21.618 27.997 21.834 27.161 22.258 C 26.109 22.226 25.131 22.323 24.105 22.532 L 16.167 23.612 L 14.644 23.764 L 12.789 24.017 L 9.429 24.486 L 7.921 24.7 C 7.515 24.757 7.228 24.384 7.148 24.011 L 6.594 21.432 C 6.714 21.313 7.025 21.091 6.99 20.963 L 6.828 20.391 L 6.534 18.554 L 6.038 16.028 L 4.597 15.999 C 3.448 13.622 2.105 11.394 0.437 9.352 C 0.093 8.93 0.11 8.766 0.05 8.269 C -0.118 6.876 0.121 5.774 1.026 4.657 L 2.39 2.975 L 3.574 3.814 C 5.739 3.574 5.765 1.715 6.917 1.078 C 7.281 1.284 7.619 1.517 7.848 1.535 C 8.078 1.554 8.546 1.238 8.649 1.033 L 9.145 0.068 C 9.443 -0.058 10.043 -0.01 10.377 0.217 C 11.149 0.739 10.735 1.904 11.772 1.969 C 12.921 2.04 13.661 1.386 14.388 0.598 C 14.754 0.201 15.673 0.54 16.062 0.858 C 16.606 1.301 17.124 1.366 17.809 1.1 L 18.377 1.795 C 18.997 2.555 19.347 1.704 20.014 2.135 C 19.653 2.954 19.955 3.402 20.474 3.974 C 20.71 4.233 21.035 4.708 21.322 4.762 C 22.301 4.945 23.233 2.97 24.459 3.655 L 24.97 4.617 C 25.102 4.865 25.87 4.919 26.168 4.859 L 28.304 4.428 C 29.052 4.278 28.944 5.308 29.233 5.531 C 29.384 5.647 29.849 5.667 30.056 5.646 L 31.399 5.508 L 31.468 7.297 L 32.305 7.41 L 32.86 9.118 L 33.739 11.2 C 33.883 11.544 33.567 12.015 33.261 12.22 C 33.632 12.599 34.005 13.027 33.891 13.54 L 32.831 13.885 C 32.834 14.397 32.849 15.066 32.68 15.374 L 32.352 15.971 C 32.269 16.121 32.719 16.346 32.866 16.443 L 33.294 16.727 C 33.596 16.928 32.39 18.027 31.11 17.272 C 30.098 16.677 29.759 17.968 28.964 17.83 C 28.347 17.723 28.022 16.699 27.845 16.8 L 27.405 17.046 C 27.217 17.151 26.752 17.275 26.523 17.268 C 26.28 17.26 25.942 16.874 25.857 16.617 L 25.221 14.703 C 24.513 14.965 23.709 15.281 23.271 15.766 C 23.109 15.946 23.141 16.656 22.918 16.736 L 21.917 17.097 C 21.379 17.291 21.072 18.18 20.905 18.729 L 20.451 20.213 C 20.797 20.286 21.303 20.21 21.716 20.213 L 25.715 20.238 L 30.033 20.368 L 31.54 20.371 C 31.811 20.371 32.142 20.407 32.393 20.504 C 31.685 21.525 30.803 21.085 29.943 21.655 C 30.645 22.184 32.328 21.391 33.334 20.775 C 34.213 20.238 36.342 21.391 36.318 20.024 C 36.308 19.53 35.986 19.049 35.625 18.729 L 35.801 17.595 L 36.538 15.884 L 37.113 14.778 C 37.446 14.694 38.053 14.53 38.411 14.27 L 40.288 14.146 Z M 14.94 20.008 C 14.68 18.419 14.582 16.998 14.769 15.433 C 13.184 14.274 12.687 16.521 11.134 16.854 C 10.974 16.268 10.951 15.714 11.1 15.212 C 11.492 13.891 9.624 13.836 11.2 13.059 C 11.272 12.872 11.067 12.337 10.876 12.156 C 10.704 11.993 10.086 12.024 9.826 12.131 L 9.576 14.023 L 9.486 15.356 L 9.424 17.082 L 9.48 20.727 C 9.793 20.851 10.23 20.878 10.571 20.844 L 13.908 20.507 C 14.208 20.476 14.996 20.363 14.937 20.008 Z M 8.064 17.977 L 8.158 15.565 C 8.188 14.83 8.201 14.206 7.856 13.501 C 7.768 13.32 7.191 13.224 7.194 13.405 L 7.366 15.698 L 7.493 17.398 C 7.512 17.656 7.785 18.016 8.064 17.977 Z M 16.631 19.929 C 16.617 20.058 16.911 20.385 17.026 20.345 C 17.685 20.109 17.743 18.64 17.313 17.621 C 16.925 17.892 16.812 18.214 16.769 18.62 L 16.629 19.929 Z M 45.784 21.48 C 45.765 21.716 45.965 22.19 46.165 22.212 L 48.389 22.453 L 48.358 19.135 C 48.356 18.936 48.341 18.653 48.279 18.521 C 48.229 18.416 47.93 18.32 47.777 18.287 L 47.687 19.816 C 47.673 20.063 47.673 20.428 47.501 20.535 C 47.084 20.796 45.96 19.293 45.906 19.968 L 45.784 21.482 Z M 42.359 21.302 L 41.446 20.518 L 41.018 19.925 C 40.913 19.779 40.361 19.84 40.282 19.948 C 40.07 20.422 39.823 20.713 39.375 21.084 L 40.434 21.26 C 41.148 21.38 41.529 21.375 42.359 21.301 Z" fill="rgb(255, 255, 255)" height="27.1557775745804px" id="LQBbp5fN7" transform="translate(61.097 2.863)" width="66.22603200541074px"/></g></svg>