<svg display="block" role="presentation" viewBox="0 0 281 37" xmlns="http://www.w3.org/2000/svg"><g d="M 270.158 0.005 L 268.927 0 C 268.843 0.271 268.55 0.406 268.33 0.639 C 267.549 1.463 267.845 2.736 268.735 3.268 C 269.651 3.815 270.851 3.46 271.267 2.441 C 271.664 1.47 271.149 0.429 270.158 0.005 Z M 270.005 2.575 C 269.589 2.753 269.088 2.562 268.848 2.104 C 268.646 1.719 268.832 1.156 269.355 0.955 C 269.797 0.784 270.29 1.022 270.445 1.392 C 270.628 1.829 270.473 2.373 270.006 2.575 Z M 36.063 37.09 L 26.915 37.09 L 26.563 36.967 L 26.566 23.374 L 26.445 23.256 L 9.571 23.29 L 9.559 36.699 L 9.207 36.91 C 6.2 37.018 3.171 37.049 0.116 37.003 C 0.033 24.809 0.051 12.633 0.175 0.476 L 9.215 0.465 L 9.235 14.377 L 26.921 14.377 L 26.921 0.469 L 36.141 0.466 L 36.063 37.091 Z M 9.208 36.908 C 9.187 36.953 9.151 37.04 9.148 37.09 L 0 37.09 L 0 0.51 L 0.177 0.476 L 0.174 36.913 Z M 144.512 0.482 L 144.439 37.093 L 153.762 37.093 L 153.723 0.473 Z M 204.047 12.683 C 202.747 8.107 199.595 4.583 195.339 2.562 C 192.725 1.451 190.103 0.569 187.163 0.555 L 167.833 0.465 L 167.836 37.093 L 185.78 37.093 C 186.025 36.82 186.591 36.82 186.836 37.093 L 187.54 37.093 C 194.911 36.279 201.622 32.676 203.938 25.163 C 205.19 21.106 205.21 16.775 204.048 12.683 Z M 186.738 28.558 L 181.91 28.799 L 177.057 28.773 L 177.054 8.77 L 183.845 8.764 C 185.788 8.763 187.68 8.984 189.455 9.665 C 193.325 10.981 195.629 14.391 195.655 18.457 C 195.694 24.293 192.401 27.655 186.738 28.559 Z M 185.78 37.093 L 186.836 37.093 C 186.495 36.958 186.123 36.956 185.78 37.093 Z M 281.248 0.494 C 280.936 0.438 280.6 0.432 280.206 0.528 L 280.191 5.659 L 275.924 0.553 C 275.566 0.37 274.972 0.443 274.604 0.533 L 274.6 7.347 C 275 7.4 275.355 7.401 275.766 7.345 L 275.812 2.067 L 280.18 7.221 L 281.251 7.186 L 281.248 0.492 Z M 266.323 3.313 C 265.341 2.636 264.027 2.602 262.965 3.14 C 262.851 2.554 262.868 2.018 262.943 1.455 L 266.663 1.449 C 266.752 1.089 266.748 0.849 266.698 0.446 L 261.729 0.471 L 261.733 4.408 C 262.823 3.892 263.975 3.653 265.12 3.994 C 265.672 4.158 266.013 4.684 265.977 5.183 C 265.949 5.575 265.642 6.082 265.154 6.248 C 263.92 6.668 262.681 6.265 261.599 5.546 C 261.518 6.059 261.647 6.397 261.774 6.821 C 263.851 7.996 266.69 7.595 267.106 5.612 C 267.284 4.758 267.08 3.837 266.323 3.317 Z M 259.905 3.385 C 258.882 2.545 257.27 2.621 256.291 3.324 C 256.198 3.391 256.184 3.67 255.95 3.692 C 255.81 3.352 256 3.149 256.068 2.915 C 256.269 2.21 256.648 1.663 257.398 1.478 C 258.341 1.246 259.291 1.419 260.124 1.971 C 260.236 1.509 260.15 1.208 259.998 0.795 C 258.707 0.097 256.97 0.103 255.832 1.137 C 254.489 2.357 254.139 5.687 255.941 6.944 C 257.57 8.08 260.019 7.367 260.501 5.699 C 260.732 4.901 260.598 3.955 259.905 3.386 Z M 259.397 5.307 C 259.327 5.694 259.012 6.128 258.479 6.353 C 257.79 6.643 257.073 6.513 256.567 6.132 C 256.195 5.849 255.662 5.025 256.009 4.451 C 256.586 3.501 258.17 3.461 258.991 4.092 C 259.406 4.411 259.474 4.879 259.395 5.308 Z M 256.09 3.313 L 256.29 3.326 C 256.122 3.278 256.065 3.117 256.066 2.915 C 256.055 3.572 256.063 3.706 256.09 3.313 Z M 118.784 36.894 C 118.764 36.944 118.758 37.003 118.755 37.057 L 108.199 37.057 L 108.174 36.717 L 108.551 36.488 L 118.574 36.542 Z M 118.724 36.931 L 109.017 36.924 C 108.652 36.924 108.362 36.888 108.114 36.755 L 94.071 0.49 L 104.551 0.485 L 113.535 25.647 L 122.576 0.465 L 132.882 0.482 Z M 90.937 36.519 C 90.926 36.538 90.921 36.86 90.844 36.902 L 80.98 36.913 C 80.998 36.959 81.029 37.018 81.015 37.085 L 91.07 37.085 C 91.094 36.882 91.027 36.688 90.937 36.518 Z M 48.117 36.531 C 48.011 36.693 47.946 36.885 47.971 37.086 L 57.823 37.086 L 57.906 36.935 L 48.196 36.896 C 48.12 36.874 48.118 36.541 48.117 36.531 Z M 90.715 36.552 C 90.467 36.741 90.542 36.73 90.939 36.519 L 74.93 0.469 L 64.138 0.465 L 48.118 36.531 L 57.699 36.583 L 57.91 36.935 C 63.495 32.34 70.591 29.692 78.031 29.671 L 80.983 36.913 L 81.146 36.561 L 90.717 36.55 Z M 67.279 22.89 C 65.571 23.34 64.22 24.131 62.699 25.019 L 69.391 8.347 L 74.781 21.618 C 72.174 21.739 69.748 22.072 67.281 22.89 Z M 255.053 37.085 L 254.94 36.674 C 254.855 36.823 254.746 36.917 254.532 36.917 L 245.725 36.914 C 245.364 36.914 245.071 36.88 244.827 36.745 C 244.865 36.835 244.848 36.989 244.851 37.085 L 255.055 37.085 Z M 211.885 36.876 C 211.885 36.955 211.825 37.029 211.777 37.085 L 221.804 37.085 C 221.807 36.975 221.81 36.841 221.852 36.742 C 221.702 36.801 221.506 36.91 221.271 36.91 L 211.887 36.876 Z M 254.938 36.674 L 238.855 0.473 L 228.068 0.465 L 211.884 36.877 L 212.271 36.527 C 215.366 36.57 218.452 36.561 221.528 36.499 L 221.849 36.745 L 224.376 30.644 L 242.334 30.638 L 244.824 36.748 L 245.2 36.521 C 248.462 36.521 251.709 36.572 254.938 36.679 Z M 227.815 22.06 L 233.327 8.361 L 238.867 22.041 Z" fill="transparent" height="37.09262029911861px" id="a6NBbw2Uj" width="281.25124986596666px"><path d="M 2.28 0.005 L 1.048 0 C 0.965 0.271 0.672 0.406 0.451 0.639 C -0.33 1.463 -0.034 2.736 0.856 3.268 C 1.773 3.815 2.973 3.46 3.388 2.441 C 3.785 1.47 3.27 0.429 2.28 0.005 Z M 2.126 2.575 C 1.71 2.753 1.21 2.562 0.969 2.104 C 0.768 1.719 0.954 1.156 1.476 0.955 C 1.918 0.784 2.411 1.022 2.566 1.392 C 2.749 1.829 2.594 2.373 2.128 2.575 Z" fill="rgb(255, 255, 255)" height="3.523665047225233px" id="X_7kvjdjq" transform="translate(267.879 0)" width="3.5226295166388883px"/><g d="M 36.063 36.625 L 26.915 36.625 L 26.563 36.502 L 26.566 22.909 L 26.445 22.791 L 9.571 22.826 L 9.559 36.234 L 9.207 36.445 C 6.2 36.553 3.171 36.584 0.116 36.538 C 0.033 24.345 0.051 12.168 0.175 0.011 L 9.215 0 L 9.235 13.912 L 26.921 13.912 L 26.921 0.005 L 36.141 0.002 L 36.063 36.626 Z M 9.208 36.443 C 9.187 36.488 9.151 36.575 9.148 36.625 L 0 36.625 L 0 0.045 L 0.177 0.011 L 0.174 36.448 Z" fill="transparent" height="36.626252871857105px" id="nDLlky43g" transform="translate(0 0.465)" width="36.14082826873718px"><path d="M 35.998 36.625 L 26.85 36.625 L 26.498 36.502 L 26.501 22.909 L 26.38 22.791 L 9.506 22.826 L 9.494 36.234 L 9.142 36.445 C 6.135 36.553 3.106 36.584 0.051 36.538 C -0.033 24.345 -0.014 12.168 0.11 0.011 L 9.15 0 L 9.17 13.912 L 26.856 13.912 L 26.856 0.005 L 36.076 0.002 L 35.998 36.626 Z" fill="rgb(255, 255, 255)" height="36.62625289643893px" id="vzl1lh4uC" transform="translate(0.065 0)" width="36.07570839127956px"/><path d="M 9.208 36.432 C 9.187 36.477 9.151 36.564 9.148 36.614 L 0 36.614 L 0 0.034 L 0.177 0 L 0.174 36.437 Z" fill="rgb(255, 255, 255)" height="36.61385193050137px" id="Lxpu6_XN9" transform="translate(0 0.011)" width="9.208476629765869px"/></g><g d="M 0.073 0.017 L 0 36.628 L 9.323 36.628 L 9.284 0.008 Z M 59.608 12.218 C 58.308 7.642 55.156 4.119 50.9 2.097 C 48.286 0.986 45.664 0.104 42.724 0.09 L 23.394 0 L 23.397 36.628 L 41.341 36.628 C 41.586 36.355 42.152 36.355 42.397 36.628 L 43.101 36.628 C 50.472 35.814 57.183 32.212 59.499 24.698 C 60.751 20.641 60.771 16.31 59.609 12.218 Z M 42.299 28.093 L 37.471 28.335 L 32.618 28.308 L 32.615 8.306 L 39.406 8.299 C 41.349 8.298 43.241 8.519 45.016 9.2 C 48.886 10.516 51.19 13.926 51.216 17.992 C 51.255 23.828 47.962 27.191 42.299 28.094 Z M 41.341 36.628 L 42.397 36.628 C 42.056 36.493 41.684 36.491 41.341 36.628 Z" fill="transparent" height="36.627806232231706px" id="TYSciHKPe" transform="translate(144.439 0.465)" width="60.45968058223394px"><path d="M 0.073 0.009 L 0 36.62 L 9.323 36.62 L 9.284 0 Z" fill="rgb(255, 255, 255)" height="36.62005241347015px" id="R611r243u" transform="translate(0 0.008)" width="9.323214341603489px"/><path d="M 36.214 12.218 C 34.914 7.642 31.762 4.119 27.506 2.097 C 24.892 0.986 22.27 0.104 19.33 0.09 L 0 0 L 0.003 36.628 L 17.947 36.628 C 18.192 36.355 18.758 36.355 19.003 36.628 L 19.707 36.628 C 27.078 35.814 33.789 32.212 36.105 24.698 C 37.356 20.641 37.377 16.31 36.215 12.218 Z M 18.905 28.093 L 14.077 28.335 L 9.224 28.308 L 9.221 8.306 L 16.012 8.299 C 17.955 8.298 19.847 8.519 21.622 9.2 C 25.492 10.516 27.796 13.926 27.822 17.992 C 27.861 23.828 24.568 27.191 18.905 28.094 Z" fill="rgb(255, 255, 255)" height="36.627803116902214px" id="cjfBme_nu" transform="translate(23.394 0)" width="37.065591837116756px"/><path d="M 0 0.102 L 1.056 0.102 C 0.715 -0.033 0.343 -0.035 0 0.102 Z" fill="rgb(255, 255, 255)" height="1px" id="USF53CnII" transform="translate(41.341 36.526)" width="1.055897050828662px"/></g><g d="M 26.543 0.184 C 26.231 0.128 25.894 0.122 25.501 0.218 L 25.485 5.349 L 21.218 0.243 C 20.86 0.06 20.266 0.133 19.899 0.223 L 19.894 7.037 C 20.294 7.09 20.649 7.091 21.06 7.035 L 21.106 1.757 L 25.474 6.911 L 26.546 6.876 L 26.543 0.182 Z M 11.617 3.004 C 10.636 2.326 9.321 2.292 8.259 2.83 C 8.146 2.244 8.163 1.708 8.237 1.145 L 11.957 1.139 C 12.047 0.779 12.042 0.539 11.993 0.136 L 7.023 0.161 L 7.028 4.098 C 8.118 3.582 9.27 3.343 10.414 3.684 C 10.966 3.848 11.307 4.374 11.272 4.873 C 11.244 5.265 10.937 5.772 10.448 5.938 C 9.214 6.358 7.975 5.955 6.893 5.236 C 6.812 5.749 6.941 6.087 7.068 6.512 C 9.146 7.687 11.985 7.285 12.4 5.302 C 12.579 4.448 12.374 3.528 11.617 3.007 Z M 5.2 3.075 C 4.176 2.235 2.564 2.311 1.586 3.014 C 1.493 3.081 1.479 3.36 1.244 3.382 C 1.105 3.042 1.294 2.839 1.362 2.605 C 1.564 1.9 1.942 1.353 2.693 1.168 C 3.635 0.936 4.586 1.109 5.418 1.661 C 5.53 1.199 5.445 0.899 5.293 0.485 C 4.001 -0.213 2.265 -0.207 1.127 0.827 C -0.216 2.047 -0.567 5.377 1.235 6.634 C 2.865 7.77 5.313 7.057 5.795 5.389 C 6.026 4.591 5.893 3.645 5.2 3.076 Z M 4.691 4.997 C 4.621 5.385 4.307 5.819 3.773 6.043 C 3.085 6.333 2.367 6.203 1.862 5.822 C 1.489 5.54 0.956 4.715 1.303 4.141 C 1.88 3.191 3.465 3.151 4.285 3.782 C 4.701 4.101 4.769 4.569 4.69 4.999 Z M 1.384 3.004 L 1.584 3.016 C 1.417 2.968 1.359 2.807 1.361 2.605 C 1.35 3.262 1.358 3.396 1.384 3.004 Z" fill="transparent" height="7.186913410490198px" id="fsTH5_LdE" transform="translate(254.706 0.31)" width="26.545683459716656px"><path d="M 6.649 0.054 C 6.337 -0.001 6 -0.008 5.607 0.089 L 5.591 5.219 L 1.324 0.113 C 0.966 -0.07 0.372 0.003 0.005 0.093 L 0 6.907 C 0.4 6.96 0.755 6.962 1.166 6.906 L 1.212 1.628 L 5.58 6.782 L 6.652 6.746 L 6.649 0.053 Z" fill="rgb(255, 255, 255)" height="6.947407771633651px" id="PBiaBUKsm" transform="translate(19.894 0.13)" width="6.651686267333844px"/><path d="M 4.749 2.868 C 3.768 2.19 2.453 2.156 1.391 2.694 C 1.278 2.108 1.295 1.572 1.369 1.009 L 5.089 1.003 C 5.179 0.643 5.174 0.403 5.125 0 L 0.155 0.025 L 0.16 3.962 C 1.25 3.446 2.402 3.207 3.546 3.548 C 4.098 3.713 4.439 4.238 4.404 4.737 C 4.376 5.129 4.069 5.636 3.58 5.802 C 2.346 6.222 1.107 5.819 0.025 5.1 C -0.056 5.613 0.073 5.951 0.2 6.376 C 2.278 7.551 5.117 7.149 5.532 5.167 C 5.711 4.312 5.506 3.392 4.749 2.871 Z" fill="rgb(255, 255, 255)" height="7.032222925051611px" id="pjmzc9vL5" transform="translate(6.868 0.136)" width="5.592763982074447px"/><path d="M 5.2 3.075 C 4.176 2.235 2.564 2.311 1.586 3.014 C 1.493 3.081 1.479 3.36 1.244 3.382 C 1.105 3.042 1.294 2.839 1.362 2.605 C 1.564 1.9 1.942 1.353 2.693 1.168 C 3.635 0.936 4.586 1.109 5.418 1.661 C 5.53 1.199 5.445 0.899 5.293 0.485 C 4.001 -0.213 2.265 -0.207 1.127 0.827 C -0.216 2.047 -0.567 5.377 1.235 6.634 C 2.865 7.77 5.313 7.057 5.795 5.389 C 6.026 4.591 5.893 3.645 5.2 3.076 Z M 4.691 4.997 C 4.621 5.385 4.307 5.819 3.773 6.043 C 3.085 6.333 2.367 6.203 1.862 5.822 C 1.489 5.54 0.956 4.715 1.303 4.141 C 1.88 3.191 3.465 3.151 4.285 3.782 C 4.701 4.101 4.769 4.569 4.69 4.999 Z" fill="rgb(255, 255, 255)" height="7.186913410490245px" id="hPC5ILKdp" transform="translate(0 0)" width="5.899531606643525px"/><path d="M 0.028 0.398 L 0.228 0.411 C 0.061 0.363 0.003 0.202 0.005 0 C -0.006 0.657 0.002 0.791 0.028 0.398 Z" fill="rgb(255, 255, 255)" height="1px" id="Mg6PUOW9q" transform="translate(1.356 2.605)" width="1px"/></g><path d="M 10.61 0.406 C 10.59 0.456 10.584 0.515 10.581 0.569 L 0.025 0.569 L 0 0.229 L 0.377 0 L 10.399 0.054 Z" fill="rgb(255, 255, 255)" height="1px" id="Pgtxxhkl5" transform="translate(108.174 36.488)" width="10.6101373257261px"/><path d="M 24.653 36.467 L 14.945 36.459 C 14.581 36.459 14.291 36.423 14.043 36.29 L 0 0.025 L 10.48 0.02 L 19.464 25.182 L 28.505 0 L 38.811 0.017 Z" fill="rgb(255, 255, 255)" height="36.46659045999331px" id="qi9i9sPO_" transform="translate(94.071 0.465)" width="38.81080628383074px"/><g d="M 42.971 36.054 C 42.961 36.073 42.956 36.395 42.878 36.437 L 33.014 36.448 C 33.033 36.494 33.064 36.553 33.05 36.62 L 43.105 36.62 C 43.128 36.417 43.061 36.223 42.971 36.053 Z M 0.151 36.067 C 0.046 36.228 -0.02 36.42 0.005 36.622 L 9.857 36.622 L 9.941 36.47 L 0.23 36.431 C 0.154 36.409 0.153 36.076 0.151 36.067 Z M 42.75 36.087 C 42.502 36.276 42.576 36.265 42.973 36.054 L 26.964 0.005 L 16.172 0 L 0.153 36.067 L 9.733 36.118 L 9.944 36.47 C 15.529 31.875 22.626 29.228 30.065 29.206 L 33.017 36.448 L 33.18 36.096 L 42.751 36.085 Z M 19.314 22.426 C 17.605 22.875 16.255 23.666 14.734 24.554 L 21.426 7.882 L 26.815 21.153 C 24.209 21.274 21.782 21.607 19.315 22.426 Z" fill="transparent" height="36.62160124572347px" id="LEL4DTqs7" transform="translate(47.966 0.465)" width="43.109455847587924px"><path d="M 9.957 0.002 C 9.947 0.02 9.942 0.343 9.864 0.384 L 0 0.395 C 0.019 0.442 0.05 0.501 0.036 0.567 L 10.091 0.567 C 10.114 0.364 10.047 0.171 9.957 0 Z" fill="rgb(255, 255, 255)" height="1px" id="cwYyww0c7" transform="translate(33.014 36.053)" width="10.095383429375026px"/><path d="M 0.151 0 C 0.046 0.161 -0.02 0.353 0.005 0.555 L 9.857 0.555 L 9.941 0.403 L 0.23 0.364 C 0.154 0.343 0.153 0.009 0.151 0 Z" fill="rgb(255, 255, 255)" height="1px" id="UdoK_n6St" transform="translate(0 36.067)" width="9.940936614957938px"/><path d="M 42.597 36.087 C 42.349 36.276 42.423 36.265 42.82 36.054 L 26.811 0.005 L 16.02 0 L 0 36.067 L 9.581 36.118 L 9.791 36.47 C 15.376 31.875 22.473 29.228 29.912 29.206 L 32.865 36.448 L 33.027 36.096 L 42.599 36.085 Z M 19.161 22.426 C 17.453 22.875 16.102 23.666 14.581 24.554 L 21.273 7.882 L 26.663 21.153 C 24.056 21.274 21.63 21.607 19.163 22.426 Z" fill="rgb(255, 255, 255)" height="36.46969080078725px" id="JuLouwrkW" transform="translate(0.153 0)" width="42.82042415966441px"/></g><g d="M 43.276 36.62 L 43.163 36.209 C 43.078 36.358 42.969 36.453 42.755 36.453 L 33.948 36.45 C 33.587 36.45 33.294 36.415 33.051 36.281 C 33.088 36.37 33.071 36.524 33.074 36.62 L 43.278 36.62 Z M 0.109 36.411 C 0.109 36.49 0.048 36.564 0 36.62 L 10.027 36.62 C 10.03 36.51 10.033 36.377 10.075 36.277 C 9.925 36.336 9.729 36.445 9.494 36.445 L 0.11 36.411 Z M 43.162 36.209 L 27.078 0.008 L 16.291 0 L 0.107 36.412 L 0.495 36.062 C 3.589 36.105 6.675 36.096 9.751 36.034 L 10.072 36.281 L 12.599 30.179 L 30.557 30.173 L 33.048 36.284 L 33.423 36.056 C 36.685 36.056 39.932 36.107 43.162 36.214 Z M 16.038 21.595 L 21.551 7.896 L 27.091 21.576 Z" fill="transparent" height="36.620053948427994px" id="rpakI9m6X" transform="translate(211.777 0.465)" width="43.27782825881036px"><path d="M 10.226 0.411 L 10.112 0 C 10.027 0.149 9.919 0.243 9.705 0.243 L 0.898 0.24 C 0.536 0.24 0.243 0.206 0 0.071 C 0.037 0.161 0.02 0.315 0.023 0.411 L 10.227 0.411 Z" fill="rgb(255, 255, 255)" height="1px" id="pJDvA1S8H" transform="translate(33.051 36.209)" width="10.227161449728328px"/><path d="M 0.109 0.133 C 0.109 0.212 0.048 0.287 0 0.343 L 10.027 0.343 C 10.03 0.233 10.033 0.099 10.075 0 C 9.925 0.059 9.729 0.167 9.494 0.167 L 0.11 0.133 Z" fill="rgb(255, 255, 255)" height="1px" id="RLPl3uHL7" transform="translate(0 36.277)" width="10.075211507024505px"/><path d="M 43.055 36.209 L 26.971 0.008 L 16.184 0 L 0 36.412 L 0.388 36.062 C 3.482 36.105 6.568 36.096 9.644 36.034 L 9.965 36.281 L 12.492 30.179 L 30.45 30.173 L 32.941 36.284 L 33.316 36.056 C 36.578 36.056 39.825 36.107 43.055 36.214 Z M 15.931 21.595 L 21.444 7.896 L 26.984 21.576 Z" fill="rgb(255, 255, 255)" height="36.41233621157062px" id="QAauLeX6m" transform="translate(0.107 0)" width="43.054551112197714px"/></g></g></svg>