<?xml version="1.0" encoding="UTF-8"?>
<svg id="Capa_1" data-name="Capa 1" xmlns="http://www.w3.org/2000/svg" viewBox="0 0 1025.59 1068">
  <defs>
    <style>
      .cls-1 {
        fill: #fff;
      }
    </style>
  </defs>
  <path class="cls-1" d="M122.29,480.17l26.62,5.5c4.28.88,7.73-1.21,8.36-5.45.52-3.49-1.67-6.61-5.85-7.53l-26.19-5.78,3.42-16.04,27.16,5.53c4.03.82,7.15-1.83,7.84-5.34.67-3.41-1.33-6.64-5.33-7.51l-26.8-5.86,3.56-16.21,27.81,6.16c10.62,2.35,15.92,11.87,14.54,22.39-.93,7.09-3.03,13.64-9.47,17.68,4.29,6.58,3.34,13.86,1.05,20.79-3.26,9.86-11.99,15.78-22.45,13.57l-27.61-5.82,3.34-16.07Z"/>
  <path class="cls-1" d="M185.01,322.1l21.58,16.29c3.37,2.54,7.39,2.3,9.75-.89,2.26-3.04,1.7-7-1.64-9.58l-21.4-16.54,9.85-13.19,21.88,16.45c3.28,2.47,7.19,2.03,9.64-1.12,2.21-2.84,1.74-6.8-1.61-9.34l-21.62-16.41,10.08-13.34,21.67,16.57c8.77,6.71,10.52,17.65,4.75,26.98-3.75,6.06-8.58,11.22-16.36,12.35,1.05,7.39-2.33,12.74-6.51,17.8-7.46,9.05-19.17,10.63-28.64,3.4l-21.33-16.29,9.9-13.16Z"/>
  <path class="cls-1" d="M266.57,263.56l15.94,19.33-12.65,10.72-41.02-49.3,12.68-10.74,13.63,16.49c1.36-6.33,4.73-10.63,9.44-14.03,7.8-5.62,17.66-4.62,24.25,2.58l19.46,23.09-12.75,10.41-17.03-20.08c-2.97-3.5-7.57-3.5-10.73-.54-3.43,3.21-4.05,7.75-1.21,12.07Z"/>
  <path class="cls-1" d="M348.72,233.57c-3.45,8.2-11.89,12.93-20.68,13.06s-16.46-5.37-20.77-13.47c-4.1-7.69-4.74-16.83.35-24.3,4.53-6.64,12.61-11.55,21.54-9.94-.52-1.35-1.16-2.16-1.18-3.49l14.08-7.81,22.72,41.14-13.76,7.69c-.55-.92-.68-1.73-2.31-2.87ZM339.06,215.67c-3.29-5.66-9.31-7.44-14.49-4.07-4.86,3.16-5.27,9.05-2.32,14.18,3.07,5.35,8.73,7.62,14,4.56,5.16-2.99,6.07-9.06,2.81-14.67Z"/>
  <path class="cls-1" d="M614.52,189.13c-2.11,9.53-8.95,16.29-18.2,18.18-7.46,1.52-15.1.2-21.71-3.52-8.77-4.95-13.51-14.08-12.21-23.85,1.24-9.31,7.49-17.5,17.32-19.92,8.73-2.15,18.05-.37,25.39,4.71,7.97,5.51,11.57,14.64,9.41,24.4ZM598.25,185.55c1.41-6.35-1.63-11.55-7.1-12.81-5.99-1.38-10.68,2.56-12.06,8.42-1.45,6.19,1.24,11.79,7.1,13.15,5.84,1.36,10.67-2.51,12.05-8.76Z"/>
  <path class="cls-1" d="M187.68,378.88l11.92-4.09c5.28,12.44-2.75,30.13-14.94,36.12-6.87,3.38-14.51,3.09-21.52-.64-5.91-3.14-10.9-9.31-12.03-16.92-1.27-8.57,1.54-16.91,7.2-23.4,6.96-7.97,17.88-9.78,27.42-5.29l-8.1,32.56c7.44.62,12.84-10.19,10.04-18.36ZM173.69,376.63c-5.99-.34-9.14,3.54-10.14,7.68s1.17,8.72,5.59,10.58l4.55-18.26Z"/>
  <path class="cls-1" d="M445.56,187.52l10.39,7.13c-4.87,8.59-14.8,12.19-25.05,12.59-11.54.46-21.43-6.44-24.4-16.74-3.22-11.15,1.16-22.49,11.63-28.1,5.93-3.18,12.76-4.35,19.51-3.14,9.27,1.66,16.31,8.76,18,18.34l-31.07,13.12c4.68,6.11,15.87,4.18,20.98-3.2ZM438.94,175.09c-3.22-4.89-8.27-5.27-12.52-3.34-3.58,1.63-6.11,5.65-4.96,10.87l17.48-7.53Z"/>
  <path class="cls-1" d="M518.73,174.22c-.45,5.34,1.96,9.81,6.08,11.39,5.05,1.95,10.22.18,12.86-5.05l12.68,6.95c-5.35,12.44-21.69,14.57-33.68,9.56-9.22-3.86-14.62-12.19-14.69-21.62-.07-9.54,4.96-18.12,14.24-21.96,12.87-5.32,30.43-1.9,35.27,11.64l-13.42,5.94c-1.57-4.91-6.03-7.2-10.45-6.73-5.02.54-8.43,4.41-8.89,9.88Z"/>
  <path class="cls-1" d="M403.89,213.57c-3.41,3.11-7.71,4.67-12.3,5.43-7.21,1.2-14.22-2.4-16.86-9.48l-17.33-46.49,15.58-5.62,16.89,45.37c.86,2.32,5.73,3.08,9-.61l5.01,11.39Z"/>
  <path class="cls-1" d="M253.26,838.88c-7.89-4.05-13.61-10.88-15.77-19.38,1.82-1.31,3.81-1.58,5.96-1.86,1.48,6.92,6.24,13.69,13.39,16,4.83,1.56,9.33-1.96,12.24-6.14-9.52.28-18.58-7.16-19.32-17.52-.68-9.54,7.47-18.27,16.97-18.29,9.7-.02,17.34,7.2,19.09,16.42,1.7-.34,2.35-1.37,3.36-2.28l4.63,4.16-23.13,25.7c-4.33,4.82-11.41,6.26-17.4,3.19ZM280.29,808.1c-1.42-5.22-5.85-8.86-10.79-9.82-5.41-1.06-10.01,2.47-12.04,6.45-2.62,5.12-.85,10.43,3.18,14.12,4.04,3.7,9.52,4.71,14.32,1.76,3.72-2.29,6.82-7.07,5.34-12.5Z"/>
  <path class="cls-1" d="M504.68,906.86c.29,5.66,4.13,8.97,9.32,8.51,4.86-.43,8.32-3.75,8.13-8.8l-.84-22.01,6.65-.14,1.19,22.07c.27,5,3.99,7.87,8.72,7.82,5-.05,8.67-3.31,8.5-8.59l-.73-22.14,6.53-.36.84,22.56c.32,8.56-6.04,14.24-14.39,14.44-4.88.12-9.49-.68-12.64-5.63-2.54,4.82-6.82,6.32-11.94,6.73-8.2.66-14.89-4.26-15.81-12.67l-1.22-23.09,6.6-.2,1.08,21.51Z"/>
  <path class="cls-1" d="M784.93,782.24c4.28,3.29,8.95,2.12,11.93-1.67s2.86-8.69-1.12-11.85l-17.54-13.9,4.06-5.21,18.19,13.73c4.04,3.05,8.78,1.53,11.59-2.24s2.66-8.27-1.19-11.33l-17.64-14.04c1.43-1.95,2.65-3.3,3.57-5.53l18.02,14.11c6.98,5.46,7.17,14.61,1.49,21.07-3.18,3.61-6.68,6.11-12.14,5.41,2.16,5.81,0,10.39-3.4,14.49-4.86,5.87-12.71,7.62-19.03,2.82l-18.32-13.91,4.1-5.37,17.44,13.43Z"/>
  <path class="cls-1" d="M382.36,893.04c-9.32,5.04-21.05.8-25.06-8.94-.91,1.2-1.46,2.79-2.21,4.46l-5.79-2.62,18.94-46.36,6.21,2.12-6.92,17.88c9.89-3.75,21.09,1.38,23.96,11.57,2.29,8.15-1.33,17.67-9.13,21.89ZM384.35,881.17c2.87-6.74.15-13.4-5.72-16.11-6.03-2.79-12.51-.69-15.73,5.22-3.61,6.61-1.84,14.05,4.82,17.39,6.09,3.05,13.59.64,16.63-6.5Z"/>
  <path class="cls-1" d="M431.44,912.53c-2.18.42-4.16-.33-6.51-1.25.41-1.2,1.26-2.42.38-4.03-8.92,4.47-20.34,1.3-24.76-8.03-3.71-7.85-1.31-18.03,5.61-23.29,8.41-6.39,20.47-3.75,25.87,4.59,1.23-1.07,1.33-2.27,1.5-3.77,2.24.16,4.21.67,6.55,1.49l-8.65,34.3ZM429.42,893.78c1.79-7.39-2.3-13.43-9.03-15.01s-12.72,2.47-14.42,9.43c-1.74,7.13,2.09,13.64,9.25,15.16,6.2,1.31,12.45-2.35,14.2-9.58Z"/>
  <path class="cls-1" d="M844.08,710.51c2.17,7.62-1.23,15.24-7.34,19.64-6.37,4.6-15.02,3.7-21.38-.93-5.83-4.24-8.64-10.89-7.17-17.8,1.38-6.48,5.86-12.17,12.52-13.86-1.51-.79-3.72-1.59-3.8-2.7.14-2.05,1.65-3.75,2.82-5.48l31.5,16.87-2.64,5.35-4.51-1.09ZM837.47,708.29c-3.63-5.53-10.74-7.95-16.44-5.29-4.3,2.01-6.75,6.61-6.94,10.7-.22,4.67,2.57,8.58,6.69,10.93,4.98,2.84,10.81,2.36,14.64-1.44,3.8-3.75,5.4-9.81,2.05-14.91Z"/>
  <path class="cls-1" d="M764.51,822.54c-7.33,7.14-17.79,6.96-24.94.17-5.69-5.39-8.15-13.07-5.07-20.21,2.92-6.77,9.38-11.89,17.49-11.29-.84-1.67-1.84-2.25-3.18-3.64l5.07-4.64,24.23,26.55-4.95,4.5c-1.06-1.46-1.79-2.67-3.48-3.8.22,5.08-1.66,8.95-5.17,12.37ZM760.35,799.99c-5.37-5.1-12.47-4.71-17.29.3-4.55,4.73-4.35,11.84.49,16.91,5.07,5.32,12.78,5.37,17.68.43s4.54-12.5-.87-17.64Z"/>
  <path class="cls-1" d="M647.88,889.46c-2.79,6.77-9.27,9.99-15.69,10.29-7.15.33-13.29-3.4-16.53-10-3.46-7.07-3.02-15.44,2.42-21.03,5.19-5.32,13.29-7.47,20.51-4.24l-1.15-4.69,5.97-2.28,12.67,34.1-6.04,1.93c-.7-1.11-.46-2.6-2.17-4.08ZM643.11,875.72c-3.09-6.59-10.02-8.78-16.09-5.99-5.99,2.75-8.43,9.35-5.86,15.85,2.74,6.93,9.9,9.85,16.23,7.02,6.49-2.9,8.95-9.99,5.72-16.88Z"/>
  <path class="cls-1" d="M599.71,910.08l-4.71-21.14c-1.28-5.76-6.45-8.02-11.83-6.54-5.73,1.58-9.44,6.25-8.16,12.35l4.13,19.71-6.54,1.19-10.64-49.12,6.6-1.28,4.06,18.03c3.56-4.57,8.07-6.92,13.7-7.47,6.98-.68,12.7,3.18,14.75,9.96l5.06,22.85-6.44,1.47Z"/>
  <path class="cls-1" d="M878.94,534.83l4.4-3.77c4.55,3.85,5.8,9.35,5.67,15.16-.24,10.86-8.42,18.78-19.27,18.28-9.48-.44-16.9-7.18-17.5-16.67-.68-10.77,7.24-19.59,18.05-19.09l5,28.31c4.55-1.21,7.23-5.27,7.8-10.03.56-4.47-.34-8.74-4.16-12.18ZM866.74,535.37c-6.51,1-9.82,7.37-8.66,13.46,1.05,5.54,6.21,9.57,12.54,9.08l-3.88-22.54Z"/>
  <path class="cls-1" d="M712.93,849.86c2.35.67,4.08.87,5.59,1.94-2.86,11.14-15.46,18.44-26.2,14.36-10.9-4.15-15.33-17.5-9.44-26.85,3.46-5.49,9.08-8.4,14.77-8.69,6.34-.33,12.1,2.69,15.75,8.52l-21.21,19.58c3.71,3.27,8.28,3.06,12.28,1.25,4.31-1.95,7.55-5.27,8.44-10.11ZM705.66,839.5c-5.33-4.99-11.92-3.57-16.06.57-3.97,3.97-4.5,10.12-.59,15.12l16.65-15.69Z"/>
  <path class="cls-1" d="M868.07,631.27c1.9-1.24,3.36-1.96,5.47-2.25,4.53,9.06,1.93,21.32-7.23,26.93-8.83,5.41-20.98,1.86-25.87-7.14-4.56-8.38-1.44-18.83,6.24-23.9,4.45-2.94,9.61-2.99,14.38-1.83l-2.46,28.9c5.04-.45,8.19-3.7,9.68-6.96,2.13-4.64,2.45-9.01-.23-13.76ZM855.84,628.39c-7.17.07-11.1,5.1-11.72,10.71s3.47,11,9.7,12.35l2.01-23.06Z"/>
  <path class="cls-1" d="M346.95,854.53c0,10.34-8.38,18.72-18.72,18.72s-18.72-8.38-18.72-18.72,8.38-18.72,18.72-18.72,18.72,8.38,18.72,18.72ZM339.28,859.23c3.09-6.6.28-13.24-5.68-16.04-5.94-2.79-12.32-.6-15.76,5.19-3.81,6.41-1.76,13.84,4.39,17.19,6.46,3.52,13.7.78,17.04-6.35Z"/>
  <path class="cls-1" d="M862.2,603.6l21.03,3.39-1.2,6.56-35.34-5.23.62-6.4c2,.3,2.97.72,4.97.45-3.72-4.14-4.1-9.28-3.16-14.46,1.36-7.5,7.6-12.52,15.32-11.44l22.62,3.16-.96,6.57-21.7-3.03c-5.42-.76-9.11,3.16-9.82,8.26-.74,5.39,1.5,11.18,7.62,12.16Z"/>
  <path class="cls-1" d="M871.42,510.74c-.5,4.97-3.1,8.53-7.24,9.47-4.35.98-8.71-.85-11.1-5.19-3.6-6.54-3.24-14.58-.94-21.74,2.37.36,4.03,1.16,5.86,2.25-3.81,7.62-1.59,18.52,3.64,18.33,1.93-.07,3.54-1.59,3.8-3.76l1.37-11.56c.53-4.43,2.92-7.95,6.89-8.7,4.14-.78,8.48.66,10.75,4.84,4.01,7.39,3.78,16.54.44,24.5-2.18-.27-3.91-1.09-5.8-2.09,4.32-8.5,2.85-20.92-2.71-20.77-2.13.06-3.65,1.4-3.88,3.68l-1.08,10.74Z"/>
  <path class="cls-1" d="M866.19,473.36c.01,5.21-2.49,8.89-6.57,9.94-4.43,1.14-8.63-.25-11.33-4.28-4.12-6.14-4.63-13.88-3.04-21.29,2.22.05,4,.67,5.96,1.47-2.84,8.41.37,18.85,5.79,17.92,1.76-.3,3.16-1.83,3.18-3.93l.12-11.13c.05-4.55,1.86-8.69,5.71-9.96,4.41-1.46,8.93-.2,11.7,3.9,4.66,6.9,5.21,15.9,2.79,23.94-2.34-.01-4.09-.65-6-1.45,3.36-8.82.79-21.24-5.14-20.36-1.85.27-3.2,1.88-3.2,4.17l.02,11.07Z"/>
  <path class="cls-1" d="M685.73,876.75c-2.95,3.12-7.58,5.05-12.02,3.95-3.08-.76-5.22-3.49-6.6-6.29l-17.52-35.33,5.95-3.16,18.48,36.93c1.65,3.29,7,1.93,8.8-.84,1.35,1.21,1.71,2.36,2.92,4.73Z"/>
  <path class="cls-1" d="M300.28,851.44l-2.94,4.85c-3.56-1.14-6.88-3.37-8.57-7.03-1.43-3.11-.84-6.86,1.17-9.68l23.55-33.06,5.55,3.9-23.05,32.16c-1.18,1.65-1.63,3.65-.61,5.55.61,1.14,1.54,2.64,4.9,3.31Z"/>
  <path class="cls-1" d="M464.6,912.29l-.42,5.44c-2.64.56-5.21.33-7.83-.55-4.46-1.49-7.02-5.76-6.31-10.64l5.87-40.36,6.58.98-5.79,39.42c-.27,1.83.5,3.81,1.51,4.62,1.52,1.21,3.34,1.63,6.4,1.09Z"/>
  <path class="cls-1" d="M858.38,689.75l-33.2-13.3,2.34-6.09c1.63.66,2.64,1.42,4.67,1.62-2.48-4.84-2.09-9.56-.08-13.94,2.03,1.14,3.71,1.88,6.1,2.26-3.84,6.31-1.77,13.38,4.77,15.96l17.94,7.06c-.3,1.87-1.04,3.76-2.54,6.43Z"/>
  <circle class="cls-1" cx="480.2" cy="190.4" r="9.93"/>
  <path class="cls-1" d="M527.91,494.28c-.33.46-.25,1.77.64,1.98,1.62.39,3.03.17,5-.03l-.08,98.4c-.01,14.22,4.64,25.59,19.02,26.16,9.45.38,17.55-4.78,19.47-14.33.92-.72,2.88-.84,3.57-1.77.59-.79-1.08-2.14-2.5-1.56l.9-11.05.06-72.75h48.86s-.06,2.44-.06,2.44c-.02.84-1.56.69-2.49.57-1.03-.13-1.29,1.44-.62,1.92.53.38,1.46.89,3.1.81l-.02,68.84c0,2.2.85,4.78.17,6.73-.9.18-3.54.95-2.76,2.59.53,1.11,2.75,1.37,4.02,1.55,1.44,10.06,9.24,16.17,19.18,16.07,8.14-.08,14.84-4.01,17.52-11.88,2.05-6.04,2.32-12.32,2.32-18.85l-.03-25.24,2.05-.23c.86-.1,1.22-1.27.57-1.79-.4-.32-1.31-.6-2.58-.54l-.05-42.96,48.98-.04v49.22c-1.15,0-2.89-.02-3.48.87-.37,1.35,1.65,2.41,3.44,1.74l-.12,28.23c-.05,10.88-2.56,21.99-7.72,31.15-.84-.04-1.92-.1-2.13.29-.32.6.33,1.49.95,1.96-6.29,10.56-16.14,18.53-28.07,22.82-19.72,7.09-45.5,7.08-63.93-2.07,1.23.02,3-.46,3.1-1.83.09-1.21-1.77-1.78-2.72-1.6s-1.8.69-2.28,2.16c-4.15-2.41-7.76-5.46-11.03-9.24-4.15,4.34-8.27,8.36-13.47,10.37-1.47.57-2.09.29-3.68,1.67-1.68,1.46-5.5,2.67-7.91,2.86-.94.07-10.63-3-7.49.17l1.26,1.28c-8.66,1.66-17.36,1.5-26.22.6.09-1.24-.39-1.94-1.04-2.15-1.11-.37-2.45.37-3.2,1.45-9.64-.91-19.3-4.54-27.66-9.99-8.02,5.2-16.94,8.47-25.98,9.79-1.3-1.69-2.98-3.27-5.42-2.27-.18,1.24-.01,2.55-.83,3.49-.21-1.26-.26-2.61-.83-3.05-1.3-1-5.11-.59-5.55.28-.29.56.43,1.61,1.55,2.71-17.05,1.52-35.35-1.73-48.4-13.35,3.64-3.64-.5-1.34-3.93-3.59-.92.91-1.54,1.79-2.71,2.04-.45-.65-.74-.95-1-1.07-.35-.16-1.05-.01-1.16.25-.21.51-.06,1.53.94,2.33-13.03,12.31-32.5,14.93-49.91,13.25.41-1.14.46-1.86.26-2.22-.36-.68-1.48-.88-2.11-.43-.54.39-.86,1.36-.01,2.54-4.77-.57-9.79-.87-14.61-2.56l-1.21-1.7c-.28-.4-1.84-.02-2.7.7-18.98-5.72-32.91-20.84-37.18-40.3-2.01-8.39-2.35-16.5-2.34-25.26l.11-67.51,7.11-.46c.99-1.27.44-3.11,2.83-4.29-.11,1.82.36,3.22,2.23,3.45,1.31.16,2.5-.87,2.52-2.71l18.43-.1c.14,1.51.87,2.42,1.49,2.64,1.41.5,2.17-1.19,2.36-2.4l10.85-.28c-.72,1.47.7,2.66.93,3.93.52,2.91.33,6.27-.02,8.92-1.1.26-2.79.43-3.08,1.84l3.29,1.57.21,61.14c.02,6.98,1.53,14.21,6.38,19.25,5.75,5.99,15.53,5.9,22.61,2.98l1.27,1.85c.37.53,1.94-.42,2.21-1.17.2-.57-.99-1.08-1.28-2.77,2.41.82,4.79.88,6.64-1.09-.9-1.05-1.69-1.19-2.66-1.59l3.22-6.06c1.55,1.04,5,.3,4.64-1.52-.32-1.63-3.03-1.25-4.12-1.65,2.56-2.34,8.57,1.87,9.14-1.21.25-1.37-.44-2.28-2.12-2.29l-6.21-.06.69-11.17-.07-70.87h48.73s.17,10.25.17,10.25c-1.8-.58-4.3.51-3.85,1.99.29.99,2.64,1.06,3.88.86l.05,64.29c-4.65-.8-8.97-1.84-9.75.11-.14.34.13,1.35.79,1.45l9.6,1.5c-.37,1.73-1.32.67-1.63.54-.77-.32-1.5,1.08-.59,1.64.4.25.97.47,2.2-.02,1.7,10.57,6.46,17.44,17.23,18.78.83,1.08,1.81,2.64,3.19,2.55s2.64-.77,3.07-2.8c6.58-.72,11.46-5.06,13.79-11.44l2.37-6.48.15-120.51c0-7.84-6.62-13.98-13.99-14.01l-34.41-.15c-21.21,1.2-39.22-14.85-40.68-35.8,1.08-.26,2.12-1.11,2.08-1.6s-1.18-1.3-2.14-1.5l-.05-24.35,65.01.02.84,2.34c.18.5,1.65.35,1.88-.34.14-.43-.23-1.11-.54-1.95l16.76.08c3.01.01,5.7,1.38,8.13,2.57-.79,1.19-.63,2.29-.07,2.8.68.61,2.28-.52,3.02-.7,2.61,1.49,6.09,4.33,7.45,7.21-2.48-.42-5.05-1.26-6.89,1.26,2.5,2.14,5.57,1.45,8.29.03,5.28,6.48,7.53,13.91,9.99,22.07,3.03-11.25,7.1-20.65,15.14-27.91,4.68-4.22,9.96-7.41,16.55-7.41l82.23-.06-.03,25.52c-.01,9.31-3.79,18.38-9.97,25.05-1.36-.38-3.42-1.13-4.4.55-.28.49,1.06,1.51,2,1.77-5.76,5.76-14.21,9.48-22.38,10.1-1.16-3.15-7.09-2.64-7.44-.51l2.7-.04c.32.14.42.43.41.62l-12.77.04c.56-1.22.19-2.31-.48-2.62-.89-.41-2.14-.47-3.06-.08-.8.34-1.04,1.65-.27,2.69l-7.75-.03c.79-1.56-.06-2.37-.84-2.48-3.7-.5-1.69,3.18-4.5,2.74-1.03-.16-1.11-.8-1.46-2.01-.37-1.28-1.86-2.03-3.06-1.42-.81.41-1.06,1.85-.73,3.21-2.66.22-5.5,1.85-8.2,1.89l-3.01.04c-1.4.02-.44,2.38-.66,3.2-2,2.55-3.79,5.95-3.78,9.56v11.36c-2.27-.33-3.77-.21-5.27.19l-.35.45ZM528.03,493.38c-.02-.66-.32-1.45-.72-1.8-.64-.55-1.55-.47-2.51-.45l-17.4.27c.27,2.15,1.73,3.2,2.94,4.84,1.07-.44,1.5-1.31,2.24-2.2,3.26.56,6.57-.43,9.58.9.98.43,1.84,1.67,3.02,1.52,1.35-.17,2.17-1.21,2.25-2.61l.6-.46ZM618.8,603.34c-2.84-2.16-4.31-.79-5.99-.34-.05-4.19-8.18-6.39-10.62-3.87,2.47,1.39,2.88,3.29,1.81,5.41,5.21,1.75,12.24,2.06,14.8-1.2ZM431.01,623.51c.87.84.93,4.5,2.95,4.43.96-.04,1.96-3.05,1.47-3.87-1.14-.72-2.03-1.82-2.43-3.22-6.56-1.02-18.49-1.17-20.22-.08-5.28,3.34,8.84,4.16,9.03,3.99l1.89-1.81c1.8-.63,5.55-1.01,7.32.56ZM356.65,646.32c3.67.03,6.8.93,9.87-1.46-3.52-2.8-7.18-2.63-11.24-2.48-2.9.11-6.98-.36-8.72,2.43,1.96,3.41,5.91-.53,7.54,3.49.48,1.18,2.31.76,2.63.06.22-.49-.18-1.01-.09-2.04Z"/>
</svg>