<?xml version="1.0" encoding="UTF-8"?>
<svg id="Capa_1" data-name="Capa 1" xmlns="http://www.w3.org/2000/svg" viewBox="0 0 643 669.83">
  <defs>
    <style>
      .cls-1 {
        fill: #fff;
      }
    </style>
  </defs>
  <path class="cls-1" d="M265.5,669.56c-24.65-.9-51.2-4.9-74.1-11.2-47.8-13.1-88.5-34.4-126.15-65.9-9.3-7.75-30.95-29.3-39.4-39.2-12.25-14.4-24.85-32.2-24.85-35.2,0-1.55.1-1.65,1.65-1.65,1.4,0,1.85.4,3.55,2.9,20.15,29.45,53.1,61.8,84.05,82.45,42.35,28.3,84.85,44.9,134.75,52.65,16.1,2.5,29.65,3.5,47.5,3.5,62.75,0,125.45-19.2,178.5-54.65,38.4-25.7,72-60.85,95.6-100.1,25.05-41.65,39.85-86.65,44.75-136,1.2-12.55,1.2-40.9,0-53.25-2.05-20.5-5.15-37.2-10.35-56-4.35-15.7-9.25-29.5-15.75-44.25-5.6-12.65-5.35-11.9-5.15-16.75.15-3.8.35-4.65,1.65-6.8.85-1.3,2.5-3.1,3.7-3.95,1.9-1.35,2.6-1.5,6.65-1.7,8.5-.3,10.55,1.45,15.25,12.8,11.2,27,18.5,52.7,23.1,81.15,3,18.5,3.8,30.35,3.8,55.75,0,23.65-.5,31.45-3.05,49.25-9.25,64.85-37.85,126.25-81.45,174.85-38.5,43-87.4,75.35-141.85,93.9-39.7,13.55-78.25,19-122.4,17.4h0Z"/>
  <path class="cls-1" d="M425.75,449.91c-5.5-1.15-13.25-4.9-17.35-8.35-5.7-4.75-10.25-11.65-12.65-19.15-1.2-3.7-1.45-5.3-1.65-12.2-.25-8.8.25-12.9,2.25-18.4,2.1-5.85,5-10.3,9.85-15.15,3.9-3.95,5.3-4.9,9.85-7.15,6.85-3.45,12.2-4.6,21.3-4.6s15.85,1.55,22.35,5.2c7.35,4.2,13,10.15,16.55,17.55,3.4,7.05,4,10.05,4,20.25,0,9.3-.4,11.8-2.95,18.1-4.9,12.1-16.2,21.4-29.4,24.1-5.45,1.1-16.3,1-22.15-.2h0ZM442.9,439.16c5.85-1.2,11.3-4.05,15.4-8.2,10.6-10.55,12.85-24.95,6.05-38.4-3.05-5.95-10.05-12.15-16.45-14.55-13.6-5.05-28.4-.05-36.5,12.35-3.55,5.45-5.05,10.5-5.1,17.3-.05,6.5,1.1,11.05,4.2,16.3,4.85,8.25,11.65,13.2,20.75,15.2,4.05.9,7.05.9,11.65,0h0Z"/>
  <path class="cls-1" d="M84.5,407.91v-42.05l5.9.15,5.85.15.15,22.15.1,22.1h40.5v-44.55l5.9.15,5.85.15v83.5l-5.85.15-5.9.15-.1-14.15-.15-14.15-20.1-.15-20.15-.1v28.5h-12v-42h0Z"/>
  <path class="cls-1" d="M191.85,449.56c-.2-.15-.35-6.15-.35-13.3v-13l-7.05-12.55c-3.9-6.9-9.15-16.25-11.7-20.8-2.55-4.55-6.2-11.1-8.2-14.6-2.2-4-3.55-6.95-3.55-7.9v-1.5h12.85l11,19.9c6.1,10.9,11.4,20.6,11.9,21.55l.85,1.7,1.1-1.95c.65-1.1,3.9-7,7.3-13.2s8.25-14.95,10.75-19.5l4.6-8.25,6.05-.15,6.1-.15v1.75c0,1.75-2.6,6.65-23.05,43.55l-6.95,12.45v26.3h-5.65c-3.15,0-5.85-.15-6-.35h0Z"/>
  <path class="cls-1" d="M245.75,449.31c-.15-.35-.2-19.2-.15-41.9l.15-41.25,14-.15c15.75-.15,20.15.25,26.9,2.45,13.3,4.35,22.2,14.4,25.4,28.7,1,4.45.85,18.05-.2,22.45-3.8,15.25-13.35,24.95-28.5,28.9-3.7.95-5.8,1.1-20.7,1.25-13.55.2-16.7.1-16.9-.45h0ZM279.75,437.26c5.4-1.75,9.45-4.25,12.8-7.85,7.15-7.6,9.75-19.6,6.65-30.3-3.05-10.65-9.6-17.25-20.45-20.7-2.9-.95-5-1.2-12.35-1.4l-8.9-.2v62.2l9.15-.2c8.05-.25,9.55-.4,13.1-1.55h0Z"/>
  <path class="cls-1" d="M327,407.86v-42.05l15.4.25c13.65.2,15.75.3,19.05,1.25,11.15,3.15,17.9,9.95,20.25,20.45,1,4.5,1,12.75.05,17.4-1.55,7.15-6.1,14.2-11.2,17.1-1.25.75-2.4,1.4-2.5,1.5-.25.15,2.9,5,10,15.2,4.1,5.85,5.45,8.25,5.45,9.4v1.55h-13.95l-7.45-11.1c-4.1-6.15-7.7-11.15-8-11.1-.35.05-3.85.1-7.85.15l-7.25.05v22h-12v-42.05h0ZM354.8,416.21c7.75-2.1,12.15-6,14.25-12.75,2.9-9.4-.4-19.3-7.75-23.35-4.4-2.4-8.25-3.2-15.8-3.2h-6.5v40.65l6.65-.35c3.7-.2,7.8-.65,9.15-1h0Z"/>
  <path class="cls-1" d="M198.35,336.86c-4.7-.5-9.95-2.2-13.8-4.3-5.85-3.25-12.05-10.55-12.05-14.25,0-1.6.2-1.75,6.85-5.55,8.55-4.8,9.2-4.85,12.2-1.2,4.15,5.1,8.25,7.35,13.15,7.35,4.65-.05,8.8-2.95,8.8-6.25s-3-6-10.85-9.25c-9.7-4.05-15-6.9-18.1-9.8-5.75-5.3-7.25-9.45-6.95-19.6.15-6.2.3-7.15,1.5-9.75,1.55-3.25,5.7-7.9,8.7-9.65,4.2-2.45,7.55-3.3,14.55-3.55,11.5-.45,16.7,1.3,23.2,7.8,3.65,3.65,3.95,4.1,3.95,6s-.2,2.2-2,3.45c-1.15.75-3.9,2.65-6.15,4.2-3.4,2.4-4.45,2.9-6.2,2.9-1.65,0-2.15-.2-2.4-1-.5-1.55-4.1-4.35-6.55-5-2.9-.85-5.65-.05-7.4,2.05-1.5,1.75-1.65,3.35-.55,5.45.95,1.85,3.5,3.35,11.25,6.5,15.7,6.45,21.4,11.3,23.75,20.25.85,3.4,1,12.8.2,16.25-2.9,12.6-16.4,19.15-35.1,16.95h0Z"/>
  <path class="cls-1" d="M278.75,337.11c-8.55-1.25-13.35-2.9-18.75-6.4-9.5-6.15-15.85-15.35-18.05-26-1.15-5.55-1.25-15.1-.25-20.4,2.95-15.25,13.85-27.15,29.05-31.7,6.4-1.9,17.8-2.25,24.85-.8,8.45,1.75,17.25,6.7,22.65,12.7,4.75,5.3,8.55,13.45,9.75,21,.8,5.05.4,17.55-.75,21.65-1.2,4.5-4.85,11.6-7.7,15.1-5.2,6.35-13.7,11.6-22.05,13.65-4.15,1-15.2,1.7-18.75,1.2ZM291.15,317.86c10.15-3.4,17-13.2,16.95-24.2-.05-10.75-7.9-21.05-18-23.75-4.95-1.3-12.15-.15-16.8,2.65-8.95,5.5-13.7,17.35-11.05,27.6,3.5,13.35,17.05,21.65,28.9,17.7h0Z"/>
  <path class="cls-1" d="M422.85,335.06c-.45-1.05-3.2-7.2-6.1-13.65-13.85-30.6-29.25-66.25-29.25-67.85v-1.65l10.55.1,10.55.15,2.7,6.25c1.5,3.45,5.6,12.95,9.1,21.1,3.5,8.2,6.45,14.7,6.65,14.5.15-.2,1.8-4.05,3.65-8.6,1.85-4.55,5.75-13.85,8.7-20.75l5.35-12.5,9.9-.15,9.85-.1v1.95c0,1.95-3.4,10.15-17.5,42.3-2.55,5.8-6.95,15.8-9.75,22.25-2.85,6.45-5.85,13.25-6.75,15.15l-1.6,3.35h-2.65c-2.6,0-2.65-.05-3.4-1.85Z"/>
  <path class="cls-1" d="M33.85,336.11c-.2-.2-.35-19.25-.35-42.35v-41.95l18.4.2c16.9.2,18.65.3,22.35,1.3,6.1,1.65,10,3.85,14.05,7.85,5.95,5.95,8.05,12.65,7.55,24.45-.15,4.9-.5,7.3-1.3,9.5-2.05,5.7-5.3,10.1-9.65,13l-2.3,1.6,7.45,11.65c6.25,9.7,7.5,11.9,7.35,13.2l-.15,1.6-11.1.15-11.15.1-1.35-1.9c-.8-1.05-3.85-5.9-6.85-10.75l-5.5-8.85h-7.8l-.1,10.65-.15,10.6-9.55.15c-5.2.05-9.65-.05-9.85-.2h0ZM65.85,296.16c5.65-1.7,9.2-6.15,9.55-12.1.3-4.1-.85-7.1-3.65-9.9s-5.75-3.8-12.6-4.1l-5.65-.3v27.8l4.9-.3c2.7-.2,6.05-.7,7.45-1.1h0Z"/>
  <path class="cls-1" d="M107.75,335.81c-.15-.35-.2-19.3-.15-42.15l.15-41.5,28.4-.15,28.35-.1v18h-37.05l.15,7.9.15,7.85,16.4.15,16.35.1-.1,8.65-.15,8.6-16.4.15-16.4.1.15,7.4.15,7.35,19.4.15,19.35.1-.1,8.9-.15,8.85-29.15.15c-23.05.1-29.2,0-29.35-.5Z"/>
  <path class="cls-1" d="M339.85,336.06c-.2-.15-.35-19.2-.35-42.25v-41.9h20v66.5h37v18h-28.15c-15.5,0-28.35-.15-28.5-.35Z"/>
  <path class="cls-1" d="M472.5,294.16v-42.25h57v18h-37v15.5h13.9c7.6,0,15.05.15,16.5.3l2.6.35v17.35h-33v15h39l-.1,8.9-.15,8.85-29.35.15-29.4.1v-42.25Z"/>
  <path class="cls-1" d="M425.5,242.01c-5.4-2.95-10.8-5.9-12-6.6-2.15-1.2-2.5-1.75-7.7-12.25-4.25-8.5-5.55-11.55-5.7-13.5l-.2-2.5,16-15.85c19.2-19.05,16.45-17.85,27.55-12.15l7.25,3.8,8.9-8.9,8.85-8.9-1.75-2.75c-9.4-14.45-12.25-34.7-7.4-52.95,4.25-16.15,16.65-31.45,31.75-39.05,5.35-2.75,13.35-5.4,18.65-6.25,5.9-.95,18.4-.95,23.9,0,8.1,1.4,17.45,5.1,24.25,9.65l2.7,1.8,8.8-8.8,8.75-8.75-3.1-6.95c-2.4-5.25-3.2-7.55-3.2-9.35l-.05-2.35,16-16,15.95-16h2.3c1.95,0,3.8.85,13.75,6.4l11.5,6.4,5.9,11.6c5.1,10.1,5.85,11.95,5.85,14.05v2.45l-16.05,15.65c-14.85,14.5-16.2,15.7-17.95,15.85-2.05.15-4.45-.9-12.1-5.2-2.15-1.2-4.15-2.2-4.5-2.2-.8,0-17.4,16.65-17.4,17.45,0,.35.9,2.1,1.95,3.9,3.55,5.8,6.85,15.05,8.1,22.6.85,5.15.75,18.05-.25,23.3-2.5,13.55-8.25,24.55-17.7,33.95-8.85,8.75-19.15,14.3-31.6,17.05-5.2,1.1-16.8,1.55-22.7.8-9.65-1.25-19.65-4.8-26.55-9.5l-3.6-2.45-8.85,8.85c-8.15,8.2-8.8,8.95-8.35,10.1.25.65,1.7,3.8,3.25,6.95,4.5,9.25,5.7,6.9-13.35,25.9-15.8,15.7-16.25,16.1-18.15,16.05-1.5,0-4.15-1.2-11.7-5.35h0ZM531.45,171.21c16.3-4.2,29.1-17.1,33.35-33.6,3.25-12.8-.1-26.95-9-38-7.15-8.85-15.8-14-27.45-16.3-4.85-.95-5.95-1.05-10.25-.55-20.5,2.3-36.75,17.3-40.9,37.65-2.6,13,2.6,28.3,13.15,38.6,11.7,11.35,26.8,15.85,41.1,12.2h0Z"/>
  <path class="cls-1" d="M0,157.31c0-1.8.95-3.5,7.35-13.35,6.25-9.5,16.25-22.85,23.2-30.85,8.15-9.35,26-27,34.95-34.5C107.45,43.36,156.45,19.16,209.25,7.71,232.35,2.71,251.85.46,276.5.06c47.2-.8,85.8,5.85,129.1,22.25,18.8,7.15,44.35,20.15,60.4,30.75,6,3.95,7.8,7.3,7.4,13.55-.35,5.25-2.3,8.5-6.25,10.5-2.05,1-9.95,1.1-12.3.15-.9-.4-4.95-2.95-9.1-5.7-11.15-7.4-12.8-8.45-21.25-13.25-34.65-19.8-71.65-32.5-111.35-38.1-12.25-1.75-17.75-2.25-30.95-2.8-16.7-.65-35.65.25-52.2,2.55-30.4,4.2-57.1,11.4-84.45,22.8C88.6,66.46,35.85,109.16,4.75,156.81c-1.15,1.8-1.65,2.1-3.05,2.1C.15,158.91,0,158.81,0,157.31h0Z"/>
</svg>